<svg width="15" height="16" viewBox="0 0 15 16" fill="none" xmlns="http://www.w3.org/2000/svg">
<g clip-path="url(#clip0)">
<path d="M14.4607 12.1141L14.4608 12.1144C14.5124 12.2693 14.5197 12.4908 14.4643 12.7255C14.409 12.9601 14.3036 13.1545 14.1887 13.2694L14.1887 13.2694L13.1263 14.3317C13.1261 14.3314 13.1087 14.3449 13.062 14.3672C13.0091 14.3924 12.9432 14.4175 12.8729 14.4403C12.8038 14.4627 12.7384 14.4804 12.6898 14.4923C12.6777 14.4953 12.6671 14.4978 12.658 14.4999C9.43033 14.5147 6.32639 13.242 4.04187 10.9574C1.75393 8.66947 0.479587 5.55768 0.500247 2.32415C0.501961 2.31748 0.503863 2.3102 0.50595 2.30236C0.518276 2.25606 0.536266 2.19342 0.558861 2.12701C0.581874 2.05938 0.607059 1.99559 0.632451 1.94409C0.655317 1.89771 0.669099 1.88039 0.668828 1.88017C0.668808 1.88015 0.668719 1.88022 0.668557 1.88037L1.73387 0.814087C1.84875 0.699211 2.04313 0.593794 2.27783 0.538432C2.51216 0.48316 2.73335 0.490366 2.88825 0.541723C2.88846 0.541794 2.88867 0.541864 2.88889 0.541935L3.1124 0.617089L3.11361 0.617494C3.27792 0.672269 3.47948 0.805274 3.66057 0.996525C3.84169 1.18781 3.96326 1.39608 4.00869 1.56279L4.5461 3.53458C4.54611 3.53459 4.54611 3.53461 4.54612 3.53463C4.54613 3.53468 4.54615 3.53474 4.54616 3.5348C4.59052 3.69807 4.58872 3.93075 4.52526 4.17481C4.46168 4.41932 4.35061 4.62006 4.23385 4.73682L3.52046 5.45021L3.31591 5.65476L3.39129 5.93405C4.13726 8.6979 6.3044 10.865 9.06858 11.6119L9.34794 11.6874L9.55256 11.4828L10.2659 10.7695C10.3826 10.6528 10.5835 10.5417 10.8283 10.4781C11.0728 10.4146 11.3057 10.4128 11.469 10.4572C11.469 10.4572 11.4691 10.4572 11.4692 10.4572L13.4397 10.9955L13.4406 10.9957C13.6066 11.0408 13.8145 11.1618 14.0059 11.3428C14.1969 11.5233 14.3305 11.7248 14.3864 11.8901C14.3865 11.8904 14.3866 11.8907 14.3867 11.891L14.4607 12.1141ZM12.7088 14.4995L12.7045 14.4996L12.7088 14.4995Z" fill="#B8A398" stroke="#B8A398"/>
</g>
<defs>
<clipPath id="clip0">
<rect width="15" height="15" fill="white" transform="translate(0 0.5)"/>
</clipPath>
</defs>
</svg>
