<svg width="17" height="13" viewBox="0 0 17 13" fill="none" xmlns="http://www.w3.org/2000/svg">
<path d="M14 0.35H2C0.812657 0.35 -0.15 1.31266 -0.15 2.5V10.5C-0.15 11.6873 0.812657 12.65 2 12.65H14C15.1873 12.65 16.15 11.6873 16.15 10.5V2.5C16.15 1.31266 15.1873 0.35 14 0.35ZM14.85 10.3428L10.9207 5.85219L14.8497 2.48508C14.8499 2.49004 14.85 2.49501 14.85 2.5V10.3428ZM13.8265 1.65L8 6.64425L2.17354 1.65H13.8265ZM5.07836 5.85122L1.15 10.3413V2.5C1.15 2.49487 1.1501 2.48977 1.15029 2.48468L5.07836 5.85122ZM2 11.35C1.99834 11.35 1.99668 11.35 1.99502 11.35L6.06591 6.69778L7.57638 7.99206C7.57653 7.99219 7.57668 7.99232 7.57683 7.99245C7.69855 8.09811 7.84998 8.15 8 8.15C8.15004 8.15 8.30148 8.0981 8.4232 7.99246C8.42333 7.99234 8.42346 7.99223 8.4236 7.99211L9.93409 6.69781L14.0049 11.35C14.0033 11.35 14.0017 11.35 14 11.35H2Z" fill="#B8A398" stroke="#B8A398" stroke-width="0.3"/>
</svg>
