<svg width="15" height="15" viewBox="0 0 15 15" fill="none" xmlns="http://www.w3.org/2000/svg">
<path d="M12.4737 11.2227L12.4738 11.2231C12.5078 11.3255 12.5152 11.4832 12.4741 11.6574C12.433 11.8317 12.356 11.969 12.2802 12.0448L12.2802 12.0448L11.4382 12.8868C11.432 12.8906 11.4217 12.8963 11.4066 12.9035C11.3695 12.9212 11.3212 12.9397 11.2675 12.9571C11.215 12.9741 11.165 12.9876 11.128 12.9967C11.1232 12.9979 11.1188 12.999 11.1147 12.9999C8.56319 13.0087 6.11024 12.0013 4.30421 10.1952C2.49574 8.38675 1.48711 5.92808 1.50012 3.3724C1.50054 3.37084 1.50096 3.36924 1.50139 3.36761C1.51084 3.33214 1.52459 3.28427 1.54176 3.23382C1.55934 3.18215 1.57791 3.13548 1.59565 3.09949C1.60334 3.08389 1.60933 3.07348 1.61313 3.06743L2.45781 2.22198C2.45782 2.22197 2.45783 2.22196 2.45783 2.22195C2.53361 2.14619 2.67095 2.06918 2.84522 2.02807C3.01914 1.98705 3.17658 1.99435 3.27895 2.02824C3.27915 2.0283 3.27934 2.02837 3.27954 2.02843L3.45805 2.08846L3.45926 2.08886C3.5711 2.12615 3.71897 2.22142 3.85585 2.36598C3.99275 2.51056 4.07958 2.66317 4.11047 2.77652C4.11047 2.77653 4.11047 2.77653 4.11047 2.77653L4.54039 4.35391C4.54039 4.35393 4.5404 4.35395 4.5404 4.35396C4.57027 4.46379 4.57099 4.63175 4.52343 4.81468C4.47577 4.99798 4.39402 5.14109 4.31637 5.21875L3.74566 5.78946L3.54111 5.99401L3.61649 6.2733C4.22254 8.51875 5.98309 10.2793 8.22878 10.8861L8.50814 10.9616L8.71276 10.757L9.28343 10.1863C9.28344 10.1863 9.28344 10.1863 9.28345 10.1863C9.361 10.1087 9.50422 10.027 9.68782 9.97925C9.87107 9.93163 10.0393 9.93238 10.1491 9.96225L11.7254 10.3929L11.7263 10.3931C11.839 10.4237 11.9913 10.5101 12.1361 10.6469C12.2803 10.7833 12.3762 10.9311 12.4143 11.044C12.4144 11.0442 12.4145 11.0445 12.4146 11.0447L12.4737 11.2227ZM11.167 12.9996L11.1628 12.9997L11.167 12.9996Z" fill="#997B6A" stroke="#997B6A"/>
</svg>
