<svg width="16" height="13" viewBox="0 0 16 13" fill="none" xmlns="http://www.w3.org/2000/svg">
<path fill-rule="evenodd" clip-rule="evenodd" d="M13.7831 0H2.21687C0.992592 0 0 1.06251 0 2.37302V10.627C0 11.9375 0.992592 13 2.21687 13H13.7831C15.0074 13 16 11.9375 16 10.627V2.37302C16 1.06251 15.0074 0 13.7831 0ZM14.4578 10.0529L11.0201 5.84738L14.4578 2.69383V10.0529ZM8 6.44499L13.225 1.65079H2.77496L8 6.44499ZM4.97897 5.84639L1.54217 10.0513V2.69342L4.97897 5.84639ZM2.53067 11.3492H13.4693L9.84961 6.92127L8.50314 8.15628L8.50225 8.15711C8.35751 8.29138 8.17765 8.35714 8 8.35714C7.82234 8.35714 7.64244 8.29136 7.49768 8.15701L6.15039 6.92124L2.53067 11.3492Z" fill="#B8A398"/>
</svg>
