<svg width="15" height="15" viewBox="0 0 15 15" fill="none" xmlns="http://www.w3.org/2000/svg">
<path d="M7.62601 14.2344L7.62594 14.2345L7.62861 14.2377L7.895 14.5633L7.97239 14.6579L8.04979 14.5633L8.31545 14.2386C8.41105 14.127 9.58742 12.7424 10.742 10.9884C11.3208 10.1091 11.8954 9.13486 12.3257 8.18023C12.7552 7.22742 13.0449 6.28528 13.0449 5.47252C13.0449 2.69425 10.7507 0.4 7.97239 0.4C5.19451 0.4 2.89988 2.66426 2.89988 5.47252C2.89988 6.22671 3.14932 7.0903 3.52785 7.96936C3.907 8.84989 4.41908 9.75364 4.9519 10.5903C6.0174 12.2633 7.17095 13.6759 7.52465 14.109L7.52484 14.1093C7.58109 14.1781 7.61477 14.2194 7.62601 14.2344ZM5.97833 5.47242C5.97833 6.56359 6.88145 7.46671 7.97262 7.46671C9.06379 7.46671 9.96691 6.56359 9.96691 5.47242C9.96691 4.38126 9.06379 3.47813 7.97262 3.47813C6.88145 3.47813 5.97833 4.38126 5.97833 5.47242ZM6.88869 5.47242C6.88869 4.87649 7.37669 4.38849 7.97262 4.38849C8.56855 4.38849 9.05655 4.87649 9.05655 5.47242C9.05655 6.06836 8.56855 6.55636 7.97262 6.55636C7.37669 6.55636 6.88869 6.06836 6.88869 5.47242ZM3.81024 5.44292C3.81024 3.15943 5.66021 1.28077 7.97239 1.28077C10.2846 1.28077 12.1345 3.15943 12.1345 5.44292C12.1345 6.05245 11.9349 6.77249 11.6138 7.53422C11.2933 8.29448 10.855 9.08877 10.3848 9.84465C9.49195 11.2803 8.48876 12.5704 7.97242 13.2155C7.45621 12.5699 6.45295 11.2728 5.56001 9.83364C5.08986 9.07587 4.65151 8.28061 4.33097 7.52168C4.00977 6.76119 3.81024 6.04492 3.81024 5.44292Z" fill="#997B6A" stroke="#997B6A" stroke-width="0.2"/>
</svg>
